# xmcd
#
# Track frame offsets: 
#        150
#        41088
#        97872
#        126964
#        170392
#        227399
#        280321
#
# Disc length: 4448 seconds
#
# Revision: 1
# Processed by: cddbd v1.5.2PL0 Copyright (c) Steve Scherf et al.
# Submitted via: ExactAudioCopy v0.95b4
#
DISCID=53115e07
DTITLE=Michiel Borstlap, Stefan Lievestro, Pascal Vermeer - Coffee and
DTITLE=Jazz
DYEAR=2005
DGENRE=Jazz
TTITLE0=All of You <C. Porter>
TTITLE1=Autumn Leaves <J. Kosma, J. Mercer, J. Prevert>
TTITLE2=Just One of Those Things <C. Porter>
TTITLE3=The Old Country <C. Lewis, N. Adderley>
TTITLE4=Bye Bye Blackbird <R. Henderson, M. Dixon>
TTITLE5=The 8Th Day <M. Borstlap, M. Pieters>
TTITLE6=Dolphine Dance <H. Hancock>
EXTD=YEAR: 2005
EXTT0=
EXTT1=
EXTT2=
EXTT3=
EXTT4=
EXTT5=
EXTT6=
PLAYORDER=
